<svg xmlns="http://www.w3.org/2000/svg" viewBox="0 0 512 512" width="512" height="512">
  <!-- Transparent background - icon only in dark green -->
  <!-- Main dome -->
  <path d="M256 110 C200 110 160 150 160 200 L160 210 L352 210 L352 200 C352 150 312 110 256 110 Z"
        fill="none" stroke="#0A3D2E" stroke-width="12" stroke-linejoin="round" stroke-linecap="round"/>
  <!-- Finial -->
  <line x1="256" y1="110" x2="256" y2="76" stroke="#0A3D2E" stroke-width="12" stroke-linecap="round"/>
  <circle cx="256" cy="68" r="10" fill="none" stroke="#0A3D2E" stroke-width="10"/>
  <!-- Crescent -->
  <path d="M246 54 A16 16 0 1 1 272 45 A10 10 0 1 0 246 54 Z" fill="#0A3D2E"/>
  <!-- Body -->
  <rect x="140" y="210" width="232" height="160" fill="none" stroke="#0A3D2E" stroke-width="12" stroke-linejoin="round"/>
  <!-- Arch door -->
  <path d="M228 370 L228 288 Q256 260 284 288 L284 370" fill="none" stroke="#0A3D2E" stroke-width="10" stroke-linecap="round" stroke-linejoin="round"/>
  <!-- Left minaret -->
  <rect x="116" y="228" width="24" height="142" fill="none" stroke="#0A3D2E" stroke-width="10"/>
  <path d="M116 228 Q128 206 140 228" fill="none" stroke="#0A3D2E" stroke-width="10" stroke-linecap="round"/>
  <line x1="128" y1="206" x2="128" y2="188" stroke="#0A3D2E" stroke-width="9" stroke-linecap="round"/>
  <circle cx="128" cy="182" r="8" fill="none" stroke="#0A3D2E" stroke-width="8"/>
  <!-- Right minaret -->
  <rect x="372" y="228" width="24" height="142" fill="none" stroke="#0A3D2E" stroke-width="10"/>
  <path d="M372 228 Q384 206 396 228" fill="none" stroke="#0A3D2E" stroke-width="10" stroke-linecap="round"/>
  <line x1="384" y1="206" x2="384" y2="188" stroke="#0A3D2E" stroke-width="9" stroke-linecap="round"/>
  <circle cx="384" cy="182" r="8" fill="none" stroke="#0A3D2E" stroke-width="8"/>
  <!-- Ground -->
  <line x1="90" y1="370" x2="422" y2="370" stroke="#0A3D2E" stroke-width="12" stroke-linecap="round"/>
  <!-- 5 dots gold -->
  <circle cx="176" cy="410" r="10" fill="#C8A84B"/>
  <circle cx="216" cy="410" r="10" fill="#C8A84B"/>
  <circle cx="256" cy="410" r="10" fill="#C8A84B"/>
  <circle cx="296" cy="410" r="10" fill="#C8A84B"/>
  <circle cx="336" cy="410" r="10" fill="#C8A84B"/>
</svg>
