<svg xmlns="http://www.w3.org/2000/svg" viewBox="0 0 520 100" width="520" height="100">
  <!-- Icon mark (60x100 area) -->
  <!-- Dome -->
  <path d="M40 28 C29 28 22 36 22 44 L22 47 L58 47 L58 44 C58 36 51 28 40 28 Z"
        fill="none" stroke="#C8A84B" stroke-width="3" stroke-linejoin="round" stroke-linecap="round"/>
  <!-- Finial -->
  <line x1="40" y1="28" x2="40" y2="21" stroke="#C8A84B" stroke-width="3" stroke-linecap="round"/>
  <!-- Crescent -->
  <path d="M37 18 A4.5 4.5 0 1 1 44.5 15 A3 3 0 1 0 37 18 Z" fill="#C8A84B"/>
  <!-- Body -->
  <rect x="18" y="47" width="44" height="34" fill="none" stroke="#C8A84B" stroke-width="3" stroke-linejoin="round"/>
  <!-- Arch door -->
  <path d="M32 81 L32 66 Q40 59 48 66 L48 81" fill="none" stroke="#C8A84B" stroke-width="2.5" stroke-linecap="round" stroke-linejoin="round"/>
  <!-- Left minaret -->
  <rect x="10" y="52" width="8" height="29" fill="none" stroke="#C8A84B" stroke-width="2.5"/>
  <path d="M10 52 Q14 46 18 52" fill="none" stroke="#C8A84B" stroke-width="2.5" stroke-linecap="round"/>
  <!-- Right minaret -->
  <rect x="62" y="52" width="8" height="29" fill="none" stroke="#C8A84B" stroke-width="2.5"/>
  <path d="M62 52 Q66 46 70 52" fill="none" stroke="#C8A84B" stroke-width="2.5" stroke-linecap="round"/>
  <!-- Ground -->
  <line x1="6" y1="81" x2="74" y2="81" stroke="#C8A84B" stroke-width="3" stroke-linecap="round"/>
  <!-- 5 dots -->
  <circle cx="22" cy="90" r="3" fill="#C8A84B"/>
  <circle cx="33" cy="90" r="3" fill="#C8A84B"/>
  <circle cx="40" cy="90" r="3" fill="#C8A84B" opacity="1"/>
  <circle cx="47" cy="90" r="3" fill="#C8A84B"/>
  <circle cx="58" cy="90" r="3" fill="#C8A84B"/>

  <!-- Divider line -->
  <line x1="88" y1="20" x2="88" y2="80" stroke="#C8A84B" stroke-width="1" opacity="0.3"/>

  <!-- Wordmark -->
  <text x="102" y="52" font-family="'Georgia', 'Times New Roman', serif" font-size="36" font-weight="700" fill="#0A3D2E" letter-spacing="1">Lima<tspan fill="#C8A84B">Waktu</tspan></text>
  <text x="104" y="72" font-family="'Georgia', 'Times New Roman', serif" font-size="13" fill="#555" letter-spacing="3">JADWAL SHALAT &amp; PENGINGAT</text>
</svg>
